<svg width="20" height="20" viewBox="0 0 20 20" fill="none" xmlns="http://www.w3.org/2000/svg">
<path d="M10 0C3.11557 0 0 2.58952 0 10C0 16.8844 2.58952 20 10 20C16.8844 20 20 17.4105 20 10C20 3.11557 17.4105 0 10 0Z" fill="#FFEFEF"/>
<g clip-path="url(#clip0)">
<path d="M10.378 6.04144C10.2338 5.76894 9.7855 5.76894 9.64133 6.04144L5.89133 13.1248C5.823 13.2539 5.82717 13.4098 5.90258 13.5344C5.978 13.6598 6.11342 13.7364 6.25967 13.7364H13.7597C13.9059 13.7364 14.0413 13.6598 14.1163 13.5348C14.1922 13.4098 14.1959 13.2539 14.1276 13.1252L10.378 6.04144ZM10.4263 12.4864H9.593V11.6531H10.4263V12.4864ZM9.593 10.8198V8.73644H10.4263L10.4267 10.8198H9.593Z" fill="#EB5757"/>
</g>
<defs>
<clipPath id="clip0">
<rect width="10" height="10" fill="white" transform="translate(5.00964 4.98644)"/>
</clipPath>
</defs>
</svg>
