<svg width="20" height="20" viewBox="0 0 20 20" fill="none" xmlns="http://www.w3.org/2000/svg">
<path d="M10 0C3.11557 0 0 2.58952 0 10C0 16.8844 2.58952 20 10 20C16.8844 20 20 17.4105 20 10C20 3.11557 17.4105 0 10 0Z" fill="#FFF6D9"/>
<path d="M6.66796 13.75C6.70171 13.75 6.73546 13.7458 6.76879 13.7375L8.43546 13.3208C8.50879 13.3025 8.57587 13.2646 8.62921 13.2112L13.7513 8.08916C13.9088 7.93166 13.9955 7.7225 13.9955 7.5C13.9955 7.2775 13.9088 7.06833 13.7513 6.91083L13.0905 6.25C12.7755 5.935 12.2271 5.935 11.9121 6.25L6.79004 11.3721C6.73671 11.4254 6.69879 11.4925 6.68046 11.5654L6.26379 13.2321C6.22796 13.3742 6.27004 13.5242 6.37337 13.6279C6.45212 13.7071 6.55879 13.75 6.66796 13.75ZM12.5013 6.83916L13.1621 7.5L12.5013 8.16083L11.8405 7.5L12.5013 6.83916ZM7.46087 11.8796L11.2513 8.08916L11.9121 8.75L8.12129 12.5404L7.24046 12.7604L7.46087 11.8796Z" fill="#F2C94C"/>
</svg>
